<svg xmlns="http://www.w3.org/2000/svg" xmlns:xlink="http://www.w3.org/1999/xlink" viewBox="0 0 1000 1000">
  <defs>
    <style>
      .cls-1 {
        fill: url("#linear-gradient");
      }
      .cls-2 {
        clip-path: url("#clip-path");
      }
      .cls-3 {
        stroke-miterlimit: 10;
        stroke-width: 1.56px;
        fill: url("#linear-gradient-3");
        stroke: url("#linear-gradient-4");
      }
      .cls-4 {
        fill: url("#linear-gradient-5");
      }
      .cls-5 {
        fill: #fff;
      }
    </style>
    <linearGradient id="linear-gradient" x1="1020" y1="500" x2="2020" y2="500" gradientUnits="userSpaceOnUse"><stop offset="0" stop-color="#14c8ff"/><stop offset="0.16" stop-color="#14bffc"/><stop offset="0.42" stop-color="#14a7f4"/><stop offset="0.75" stop-color="#137fe7"/><stop offset="1" stop-color="#135cdc"/></linearGradient>
    <clipPath id="clip-path"><rect id="Inner-Rectangle_Mask" data-name="Inner-Rectangle Mask" class="cls-1" x="1020" width="1000" height="1000"/></clipPath><linearGradient id="linear-gradient-3" x1="-2036.02" y1="1000.5" x2="-2034.8" y2="1000.5" gradientTransform="matrix(859.52, 859.52, 872.47, -872.47, 878094.43, 2622895.01)" xlink:href="#linear-gradient"/>
    <linearGradient id="linear-gradient-4" x1="1523.84" y1="-91.5" x2="1523.84" y2="1121.43" gradientTransform="matrix(0.87, 0.87, -0.88, 0.88, 653.32, -1268.82)" gradientUnits="userSpaceOnUse"><stop offset="0" stop-color="#fff"/><stop offset="1" stop-color="#fff"/></linearGradient><linearGradient id="linear-gradient-5" x1="13.35" y1="503" x2="971.54" y2="503" gradientTransform="translate(995.64 11.03) rotate(90)" xlink:href="#linear-gradient"/></defs>
  <title>musescore-icon-round</title>
  <g id="musescore-icon-square">
    <g id="Inner-Rectangle"><rect id="Inner-Rectangle_Mask-2" data-name="Inner-Rectangle Mask" class="cls-1" x="1020" width="1000" height="1000"/>
      <g class="cls-2"><path id="Gradiant" class="cls-3" d="M1541.76-540.8,2579.7,497.14a12.19,12.19,0,0,1-.13,17.23L1526,1568a12.19,12.19,0,0,1-17.23.13L470.81,530.14a12.19,12.19,0,0,1,.13-17.23L1524.52-540.67A12.19,12.19,0,0,1,1541.76-540.8Z"/></g>
    </g>
  </g>
  <g id="musescore-icon-round"><ellipse id="Inner-Circle" class="cls-4" cx="492.64" cy="503.48" rx="479.08" ry="479.09" transform="translate(-211.75 499.73) rotate(-45.32)"/>
    <g id="icon">
      <g id="mu"><path
        class="cls-5"
        d="M680.7,747.5c-21.18,0-26.72-.46-37-3.07-39-9.7-66.39-35.27-77.24-72-1.78-5.92-2.31-20.8-3.15-88.43-1-79.93-1.54-87.66-6.85-103.33C549,458.85,532.29,444.07,509.3,439a105.36,105.36,0,0,0-21.22-2c-14.51,0-28.82,2.51-38.26,6.72-13.33,5.78-28.7,18.28-36.57,29.72-5.06,7.59-12.34,23.93-15.25,34.25-2.54,9.12-2.57,10.2-3.08,115.42l-.42,115.67H366.89l-.55-117.76c-.52-115.72-.7-119.6-6.4-138.55-6.45-22-23.31-38.19-45.1-43.35-5.32-1.27-14.08-2-23.44-2-8.85,0-16.75.69-21.14,1.86-28.26,7.63-50.62,29.52-62.93,61.64l-.71,1.86c-7.61,19.94-7.61,19.94-8.07,119l0,8.61-.55,108.71H170.18V633.56c0-109.16.41-115.71,8.67-140.23a172.78,172.78,0,0,1,10.52-23.76c6.88-12.11,22.08-29,34.6-38.53,14-10.58,34.17-19.11,51.46-21.73a105.39,105.39,0,0,1,12.32-.48c3.19,0,6.56,0,9.75.14,29.88.69,46.86,7.77,67.27,28a103.83,103.83,0,0,1,21,28.71c5.38-10.64,8.58-14.8,18.59-24.81,7.28-7.14,16.6-14.76,21.69-17.73,16.43-9.55,37.68-14.81,59.84-14.81h2c22.9.32,44.29,6.19,60.24,16.53,21.28,13.9,33.19,33.14,39.85,64.34,1.77,8.45,2.45,21.7,3.27,88.1l.06,4.8c.95,77.23,1,80.24,8.17,94.95l.19.39c13.78,28,41.5,42.86,80.15,42.86,33.33,0,52.78-6.94,71.77-25.59,15.74-15.51,23.82-25.72,29.81-52.31,2.63-11.48,3.42-27.72,3.92-120l.57-106.34h27.93l-.6,119.11c0,7.41.05,15,.1,22.34.32,46.2.62,89.83-10.87,115.51-8.48,18.94-12.8,25.79-29.18,41.35-18.22,17.36-34.27,24.16-54.27,29.51-12.08,3.23-16.45,3.49-38.23,3.62h0Z"/><path
        class="cls-5"
        d="M485.88,410.87h1.92c22.44.32,43.36,6,58.91,16.13,20.67,13.5,32.26,32.27,38.76,62.76,1.73,8.26,2.4,21.42,3.21,87.61l0,3.62c1,78.91,1,81.91,8.44,97.2l.19.39c14.23,29,42.73,44.26,82.4,44.26,31.45,0,52.79-5.94,73.53-26.31,16.31-16.06,24.5-27,30.49-53.54,2.71-11.82,3.48-28.54,4-120.58l.55-103.85h22.93l-.59,116.59c0,52.5,2.58,107.5-10.55,136.83-8.43,18.83-12.74,25.47-28.62,40.56-17,16.16-32.11,23.27-53.19,28.91-11.79,3.15-16.1,3.4-37.6,3.53-20.92,0-26.36-.45-36.43-3-38.07-9.48-64.87-34.44-75.46-70.28-1.73-5.76-2.24-23-3-87.75-1-80.3-1.56-88.09-7-104.1-7.68-22.69-25.07-38.05-49-43.27a107.52,107.52,0,0,0-21.75-2.08c-14.44,0-29.19,2.44-39.28,6.93-13.71,5.94-29.5,18.8-37.61,30.59-5.17,7.76-12.63,24.47-15.6,35-2.63,9.45-2.66,10.53-3.17,116.09L392,736.31H369.38L368.84,621c-.52-116.07-.7-120-6.51-139.26-6.7-22.86-24.24-39.69-46.92-45.07-5.83-1.4-15.06-2.1-24-2.1-8.56,0-16.89.64-21.78,1.94-29.06,7.85-52,30.28-64.62,63.16l-.71,1.86c-7.78,20.36-7.78,20.36-8.23,119.9l0,8.61-.54,106.22H172.68V633.56c0-108.77.4-115.28,8.54-139.43a169.75,169.75,0,0,1,10.33-23.34c6.74-11.86,21.63-28.43,33.93-37.75,13.67-10.35,33.42-18.69,50.33-21.25a101.31,101.31,0,0,1,11.94-.46c3.19,0,6.59,0,9.68.14,29.15.68,45.7,7.57,65.58,27.31,10.29,10.17,17.74,21,22.64,32.8l1.28-2.62c6-12.08,8.66-15.77,19.19-26.29,7.16-7,16.25-14.45,21.19-17.33,16.11-9.36,36.86-14.46,58.58-14.46m0-5c-22.59,0-44.29,5.38-61.09,15.14-5.34,3.11-14.66,10.72-22.18,18.09-8.83,8.83-12.49,13.22-16.84,21.19a108.85,108.85,0,0,0-19.25-25.07c-20.67-20.53-38.72-28.05-69-28.76-3.19-.09-6.59-.14-9.8-.14a98.35,98.35,0,0,0-12.73.52c-17.67,2.68-38.29,11.4-52.56,22.21-12.76,9.67-28.24,26.92-35.26,39.27a175.84,175.84,0,0,0-10.72,24.2c-8.39,24.9-8.8,31.49-8.8,141V741.31h32.75l0-5L201,630.12l0-8.62c.45-98.63.45-98.63,7.9-118.14l.71-1.86c12-31.34,33.77-52.69,61.26-60.11,4.16-1.1,11.83-1.77,20.47-1.77,9.18,0,17.72.73,22.85,2,20.92,5,37.1,20.51,43.29,41.61,5.62,18.65,5.79,22.51,6.31,137.88l.54,115.27,0,5H397l0-5,.41-113.18c.5-103.9.56-106,3-114.77,2.8-9.91,10-26.2,14.92-33.53,7.64-11.1,22.55-23.21,35.46-28.81,9.19-4.09,23.11-6.52,37.29-6.52a102.85,102.85,0,0,1,20.73,2c22.07,4.82,38.15,19,45.25,40,5.19,15.32,5.69,23,6.71,102.56.86,68.68,1.38,82.84,3.26,89.13,11.1,37.59,39.18,63.76,79,73.69,10.56,2.68,16.19,3.15,37.64,3.15,21.75-.13,26.6-.42,38.89-3.7,20.37-5.45,36.74-12.39,55.35-30.12,16.57-15.74,21.23-23.13,29.74-42.14,11.71-26.17,11.41-70.07,11.09-116.54-.05-7.34-.1-14.92-.1-22.34l.59-116.57,0-5H783.34l0,5-.55,103.85c-.5,92.08-1.27,108.22-3.85,119.49-5.85,26-13.74,35.93-29.13,51.09-18.46,18.13-37.43,24.87-70,24.87-37.63,0-64.58-14.34-77.91-41.47l-.19-.38c-6.81-13.94-7-15.69-7.92-93.88v-1.18l0-3.62c-.82-67.13-1.48-79.82-3.32-88.58-6.81-31.92-19-51.63-40.92-65.92-16.35-10.6-38.21-16.61-61.58-16.94Z"/></g>
      <g id="fermata-dot"><path class="cls-5" d="M688,359.62a20.5,20.5,0,1,1,20.5-20.5A20.52,20.52,0,0,1,688,359.62Z"/><path class="cls-5" d="M688,321.12a18,18,0,1,1-18,18,18,18,0,0,1,18-18m0-5a23,23,0,1,0,23,23,23,23,0,0,0-23-23Z"/></g>
      <g id="fermata-arch"><path
        class="cls-5"
        d="M784.17,349.61v-2.5c0-43.36-14.83-69.89-48.09-86-13.07-6.34-31.37-10.28-47.77-10.28l-2,0h-.1l-2,0c-16.4,0-34.7,3.94-47.76,10.28C602.88,277.38,587.9,303.86,587.9,347v2.5h-2.5c-6.88,0-11.79.15-11.84.15h-.81c-1.43,0-3.46,0-5.32-.07-1.57,0-3-.05-3.89-.05H561V347c0-36,12.48-69.16,33.39-88.82,17.32-16.29,36.71-26.16,62.87-32,7.33-1.68,17.89-2.66,29-2.68s21.64,1,29,2.68c26.15,5.85,45.54,15.72,62.86,32C799,277.84,811.5,311,811.5,347v2.5H809c-.87,0-2.32,0-3.89.05-1.87,0-3.89.07-5.32.07Z"/><path
        class="cls-5"
        d="M686.27,226c10.41,0,20.94.9,28.43,2.62C740,234.26,759,243.6,776.4,260S809,306.66,809,347c-1.92,0-6.58.12-9.21.12H786.67c0-41.11-12.64-70.4-49.5-88.28-14.25-6.91-33-10.53-48.86-10.53l-2,0-2,0c-15.88,0-34.6,3.61-48.86,10.53-36.86,17.88-50,47-50,88.13-7,0-11.92.15-11.92.15h-.73c-2.63,0-7.29-.12-9.21-.12,0-40.34,15.16-70.6,32.6-87s36.43-25.74,61.7-31.39c7.48-1.72,18-2.6,28.43-2.62m0-5h0c-11.25,0-22,1-29.53,2.75-26.6,5.95-46.35,16-64,32.62-9.83,9.24-18.14,21.79-24,36.28-6.72,16.5-10.13,34.79-10.13,54.36v5h5c.84,0,2.3,0,3.85.05,1.92,0,3.91.07,5.37.07h.88s4.93-.15,11.77-.15h5v-5c0-20.7,3.46-37.19,10.57-50.41,7.58-14.09,19.55-25,36.59-33.23,12.75-6.18,30.63-10,46.67-10l1.94,0h.2l1.94,0c16,0,33.93,3.84,46.67,10,17,8.23,28.86,19.11,36.34,33.27,7,13.17,10.35,29.7,10.35,50.51v5h18.12c1.46,0,3.45,0,5.37-.07,1.55,0,3-.05,3.85-.05h5v-5c0-19.57-3.41-37.86-10.13-54.36-5.9-14.49-14.22-27-24-36.28-17.66-16.61-37.41-26.67-64-32.62C708.29,222,697.53,221,686.28,221Z"/></g>
    </g>
  </g>
</svg>
