<svg id="musescore-icon-square" xmlns="http://www.w3.org/2000/svg" xmlns:xlink="http://www.w3.org/1999/xlink" viewBox="0 0 1000 1000"><defs><style>.cls-1{stroke-miterlimit:10;stroke-width:1.56px;fill:url(#linear-gradient);stroke:url(#linear-gradient-2);}.cls-2{fill:#fff;}</style><linearGradient id="linear-gradient" x2="1000" y2="1000" gradientUnits="userSpaceOnUse"><stop offset="0" stop-color="#1f8fbd"/><stop offset="0.25" stop-color="#1f86bd"/><stop offset="0.53" stop-color="#1f77bd"/><stop offset="1" stop-color="#1c69b5"/></linearGradient><linearGradient id="linear-gradient-2" x1="1000.78" y1="-0.78" x2="-0.78" y2="1000.78" gradientUnits="userSpaceOnUse"><stop offset="0" stop-color="#fff"/><stop offset="1" stop-color="#fff"/></linearGradient></defs><title>musescore-icon-square</title><rect id="Rectangle" class="cls-1" width="1000" height="1000"/><path id="mu" class="cls-2" d="M686.37,224c-76.92,0-139.78,62.86-139.78,139.77h46.59a93.19,93.19,0,0,1,186.37,0h46.59C826.14,286.82,763.28,224,686.37,224Zm0,116.48a23.3,23.3,0,1,0,23.29,23.29A23.3,23.3,0,0,0,686.37,340.44ZM290.34,387c-64.06,0-116.48,52.42-116.48,116.48v233h46.59v-233a69.89,69.89,0,1,1,139.77,0v233h46.6v-233a69.89,69.89,0,1,1,139.77,0v93.18c0,76.92,62.86,147.35,139.78,147.35s139.77-70.43,139.77-147.35V410.32H779.55V596.69c0,51.73-41.46,105.31-93.18,105.31s-93.19-53.58-93.19-105.31V503.51C593.18,439.45,540.76,387,476.7,387c-38.17,0-71.9,18.85-93.18,47.45C362.24,405.88,328.51,387,290.34,387Z"/></svg>