<svg xmlns="http://www.w3.org/2000/svg" xmlns:xlink="http://www.w3.org/1999/xlink" viewBox="0 0 1000 1000"><defs><style>.cls-1{fill:#d8d8d8;}.cls-2{fill:url(#linear-gradient);}.cls-3{fill:#2269a5;}</style><linearGradient id="linear-gradient" x1="-1017.48" y1="1001" x2="-1017.48" y2="1000.03" gradientTransform="matrix(986.87, 0, 0, -986.87, 1004623.18, 987879.46)" gradientUnits="userSpaceOnUse"><stop offset="0" stop-color="#fff"/><stop offset="1" stop-color="#fff"/></linearGradient></defs><title>musescore-icon-square</title><g id="musescore-icon-square"><rect id="Base" class="cls-1" x="1.83" y="1.66" width="997.17" height="997.17" rx="7.8" ry="7.8"/><rect id="Inner-Rectangle" class="cls-2" x="19.28" y="19.1" width="961.96" height="961.96" rx="7.8" ry="7.8"/><g id="Logo"><path id="fermata-arch" class="cls-3" d="M680.12,197.74c-27.46,5.95-48.05,16.42-66.41,33.83-19.33,18.55-29.56,38.79-33.76,66.68-2.94,19.39-3.22,18.4,4.76,18.4h6.72l.84-9.63c3.22-38.51,24.38-68.66,60.66-86.07,19.89-9.63,33.62-12.46,58.7-12.46,17,.14,23.12.71,32.22,3.26C781.13,221.94,807,245.3,818,278.43a127.09,127.09,0,0,1,4.34,19.82c1.82,19.25,1.4,18.4,8.69,18.4h6.44l-.84-12.46c-1-13.87-6.16-33.41-11.63-44.59-16.25-32.56-47.07-55.07-86-62.43C723.27,194.05,695.39,194.34,680.12,197.74Z"/><path id="fermata-dot" class="cls-3" d="M704.36,295.42c-3.92,1.56-8.83,9.34-8.83,13.87,0,11.75,14.43,20,23.82,13.45C735.88,311.41,722.85,287.91,704.36,295.42Z"/><path id="mu" class="cls-3" d="M263.34,398.34c-17.65,2.69-38.25,11.61-52.12,22.23-12.75,9.77-28.3,27.18-35.3,39.64a180.29,180.29,0,0,0-10.79,24.63c-8.55,25.62-9,31.85-9,150.91v107H170l.56-110.85c.56-122.74.28-118.63,10.09-144.68,14.29-37.66,40.49-63.42,73.69-72.48,11.63-3.11,38.81-3.11,52.26.14,26.62,6.37,46.93,26,54.78,53.09,6.58,22.08,6.72,27,7.28,154l.56,120.76H383l.42-117.93C384,507.91,384,506.92,387,495.74c3.36-12,11.77-31,17.65-39.92,9.25-13.59,27.18-28.46,43-35.39,17.93-8.07,47.49-10.33,69.49-5.66,27.6,6.09,48.05,24.21,57,51,6.16,18.4,6.72,27.89,7.85,115.66.84,68.09,1.4,85.65,3.08,91.31C596.06,710.07,623.66,736,663,745.89c10.51,2.69,16,3.11,38.11,3.11,23.26-.14,27.32-.42,39.37-3.68,22-5.95,36.42-14.3,54.22-31.43,16.81-16.14,25.78-30.58,33.06-52.52,8.55-26.19,8.27-22.65,8.83-144.12l.56-111.41h-14L822.6,512.3c-.56,103.77-.56,107-3.64,120.62-6.72,30.15-17.79,51.67-36.42,70.22-23.68,23.5-46.79,32.56-82.38,32.56-45.25,0-77.75-17.84-94.14-51.53-9-18.55-8.83-17.55-9.95-109.86-.84-69.23-1.54-86.07-3.36-94.85-6.72-31.85-18.63-51.39-39.65-65.26-33.06-21.66-88.26-22.51-123.7-1.7-5,3-14.71,11-21.85,18.12-10.93,11-13.59,14.72-19.75,27.32l-7.14,14.72-1.68-5.52c-4.76-14.72-13-28-25.78-40.77-20.73-20.81-37.13-27.61-67.39-28.31C275.8,397.77,265.72,397.91,263.34,398.34Z"/></g></g></svg>