<svg xmlns="http://www.w3.org/2000/svg" xmlns:xlink="http://www.w3.org/1999/xlink" viewBox="0 0 1000 1000">
  <defs>
    <style>
      .cls-1 {
        fill: url("#linear-gradient");
      }
      .cls-2 {
        clip-path: url("#clip-path");
      }
      .cls-3 {
        stroke-miterlimit: 10;
        stroke-width: 1.47px;
        fill: url("#linear-gradient-3");
        stroke: url("#linear-gradient-4");
      }
      .cls-4 {
        fill: #d7d7d7;
      }
      .cls-5 {
        fill: url("#linear-gradient-5");
      }
      .cls-6 {
        fill: #fff;
      }
    </style>
    <linearGradient id="linear-gradient" x1="1039" y1="500" x2="2001" y2="500" gradientUnits="userSpaceOnUse"><stop offset="0" stop-color="#14c8ff"/><stop offset="0.16" stop-color="#14bffc"/><stop offset="0.42" stop-color="#14a7f4"/><stop offset="0.75" stop-color="#137fe7"/><stop offset="1" stop-color="#135cdc"/></linearGradient>
    <clipPath id="clip-path"><rect id="Inner-Rectangle_Mask" data-name="Inner-Rectangle Mask" class="cls-1" x="1039" y="19" width="962" height="962"/></clipPath><linearGradient id="linear-gradient-3" x1="-2036" y1="1000.5" x2="-2034.84" y2="1000.5" gradientTransform="matrix(859.52, 859.52, 872.47, -872.47, 878094.43, 2622895.01)" xlink:href="#linear-gradient"/>
    <linearGradient id="linear-gradient-4" x1="1509.84" y1="-61.74" x2="1509.84" y2="1082.74" gradientTransform="matrix(0.87, 0.87, -0.88, 0.88, 653.32, -1268.82)" gradientUnits="userSpaceOnUse"><stop offset="0" stop-color="#fff"/><stop offset="1" stop-color="#fff"/></linearGradient><linearGradient id="linear-gradient-5" x1="50.67" y1="503.48" x2="933.26" y2="503.48" gradientTransform="translate(995.45 11.52) rotate(90)" xlink:href="#linear-gradient"/></defs>
  <title>musescore-icon-round</title>
  <g id="musescore-icon-square">
    <g id="Inner-Rectangle"><rect id="Inner-Rectangle_Mask-2" data-name="Inner-Rectangle Mask" class="cls-1" x="1039" y="19" width="962" height="962"/>
      <g class="cls-2"><path id="Gradiant" class="cls-3" d="M1532.57-497.43l979.36,979.36a11.5,11.5,0,0,1-.12,16.26l-994.12,994.12a11.5,11.5,0,0,1-16.26.12L522.07,513.07a11.5,11.5,0,0,1,.12-16.26l994.12-994.12A11.5,11.5,0,0,1,1532.57-497.43Z"/></g>
    </g>
  </g>
  <g id="musescore-icon-round"><ellipse id="Base" class="cls-4" cx="491.97" cy="503.48" rx="479.77" ry="479.76"/><ellipse id="Inner-Circle" class="cls-5" cx="491.97" cy="503.48" rx="441.29" ry="441.3" transform="translate(-211.96 499.25) rotate(-45.32)"/>
    <g id="icon"><path
      class="cls-6"
      d="M680.7,746c-21,0-26.51-.45-36.67-3-38.43-9.57-65.48-34.77-76.17-71-1.71-5.7-2.26-21.33-3.09-88-1-80.15-1.55-87.91-6.92-103.79-7.56-22.34-24.69-37.47-48.22-42.61a106.89,106.89,0,0,0-21.54-2.06c-14.71,0-29.24,2.56-38.87,6.85C435.66,448.24,420,461,412,472.61c-5.14,7.71-12.51,24.25-15.46,34.69-2.59,9.32-2.62,10.4-3.13,115.82L393,737.31H368.38L367.84,621c-.52-115.93-.7-119.83-6.47-139-6.6-22.5-23.87-39.09-46.2-44.38-5.42-1.3-14.31-2.07-23.79-2.07-9,0-17,.71-21.52,1.91-28.74,7.76-51.46,30-63.95,62.55l-.71,1.86c-7.71,20.19-7.71,20.19-8.16,119.55l0,8.61-.55,107.21H171.68V633.56c0-108.93.4-115.46,8.59-139.75a171,171,0,0,1,10.4-23.51c6.79-12,21.81-28.67,34.2-38.06,13.79-10.44,33.72-18.86,50.78-21.44a109,109,0,0,1,12.09-.47c3.17,0,6.53,0,9.71.14,29.45.68,46.16,7.65,66.25,27.6,9.84,9.73,17,19.92,22,31.11l.32-.66c6-12.21,8.75-15.93,19.38-26.56,7.2-7.06,16.39-14.57,21.39-17.49,16.21-9.42,37.19-14.6,59.08-14.6h1.94c22.62.32,43.73,6.1,59.44,16.29,20.91,13.66,32.63,32.62,39.2,63.39,1.75,8.33,2.42,21.53,3.24,87.81l.06,4.8c1,77.55,1,80.58,8.32,95.59l.19.39c14.05,28.59,42.24,43.7,81.5,43.7,33.78,0,53.51-7.05,72.82-26,16.56-16.31,24.41-27.28,30.22-53,2.66-11.61,3.45-27.9,4-120.36l.56-104.85h24.93l-.59,117.6c0,7.42.05,15,.1,22.35.32,46,.62,89.5-10.74,114.88-8.38,18.72-12.65,25.49-28.85,40.88-18,17.14-33.86,23.86-53.62,29.15-11.9,3.18-16.24,3.44-37.85,3.57Z"/><path
      class="cls-6"
      d="M485.88,410.87h1.92c22.44.32,43.36,6,58.91,16.13,20.67,13.5,32.26,32.27,38.76,62.76,1.73,8.26,2.4,21.42,3.21,87.61l0,3.62c1,78.91,1,81.91,8.44,97.2l.19.39c14.23,29,42.73,44.26,82.4,44.26,31.45,0,52.79-5.94,73.53-26.31,16.31-16.06,24.5-27,30.49-53.54,2.71-11.82,3.48-28.54,4-120.58l.55-103.85h22.93l-.59,116.59c0,52.5,2.58,107.5-10.55,136.84-8.43,18.83-12.74,25.47-28.62,40.56-17,16.16-32.11,23.27-53.19,28.91-11.79,3.15-16.1,3.4-37.6,3.53-20.92,0-26.36-.45-36.43-3-38.07-9.48-64.87-34.44-75.46-70.28-1.73-5.76-2.24-23-3-87.75-1-80.3-1.56-88.09-7-104.1-7.68-22.69-25.07-38.05-49-43.27a107.52,107.52,0,0,0-21.75-2.08c-14.44,0-29.19,2.44-39.28,6.93-13.71,5.94-29.5,18.8-37.61,30.59-5.17,7.76-12.63,24.47-15.6,35-2.63,9.45-2.66,10.53-3.17,116.09L392,736.31H369.38L368.84,621c-.52-116.07-.7-120-6.51-139.26-6.7-22.86-24.24-39.69-46.92-45.07-5.83-1.4-15.06-2.1-24-2.1-8.56,0-16.89.64-21.78,1.94-29.06,7.85-52,30.28-64.63,63.16l-.71,1.86c-7.78,20.36-7.78,20.36-8.23,119.9l0,8.61-.54,106.22H172.68V633.56c0-108.77.4-115.28,8.54-139.43a169.75,169.75,0,0,1,10.33-23.34c6.74-11.86,21.63-28.43,33.93-37.75,13.67-10.35,33.42-18.69,50.33-21.25a101.3,101.3,0,0,1,11.94-.46c3.19,0,6.59,0,9.68.14,29.15.68,45.7,7.57,65.58,27.31,10.29,10.17,17.74,21,22.64,32.8l1.28-2.62c6-12.08,8.66-15.77,19.19-26.29,7.16-7,16.25-14.45,21.19-17.33,16.11-9.36,36.85-14.46,58.58-14.46m0-2c-22.07,0-43.23,5.23-59.58,14.74-5.06,3-14.34,10.54-21.58,17.64-10.37,10.37-13.29,14.23-19,25.61a102.87,102.87,0,0,0-21.33-29.49c-20.3-20.16-37.19-27.2-66.94-27.89-3.18-.09-6.55-.14-9.73-.14a109.17,109.17,0,0,0-12.27.48c-17.18,2.6-37.29,11.09-51.2,21.63-12.48,9.46-27.62,26.31-34.46,38.36a172.2,172.2,0,0,0-10.48,23.68c-8.24,24.45-8.64,31-8.64,140.08V738.31h26.77v-2L198,630.1l0-8.61c.45-99.18.45-99.18,8.1-119.2l.71-1.86c12.37-32.26,34.85-54.26,63.28-61.94,4.41-1.17,12.36-1.87,21.26-1.87,9.4,0,18.21.76,23.55,2,22,5.21,39,21.54,45.47,43.68,5.73,19,5.91,22.92,6.43,138.71l.54,115.27v2H394v-2l.41-113.18c.51-105.29.54-106.37,3.1-115.56,2.93-10.36,10.24-26.76,15.34-34.42,7.9-11.49,23.36-24.06,36.74-29.87,9.52-4.24,23.9-6.77,38.48-6.77a105.89,105.89,0,0,1,21.34,2c23.16,5.06,40,20,47.47,42,5.33,15.74,5.84,23.48,6.87,103.48.84,67.57,1.37,82.42,3.13,88.3,10.79,36.54,38.1,62,76.89,71.64C654,746.54,659.57,747,680.7,747c21.73-.13,26.09-.39,38.11-3.6,19.92-5.33,35.91-12.1,54.05-29.39,16.32-15.5,20.62-22.32,29.07-41.19,11.45-25.58,11.15-69.16,10.83-115.3-.05-7.34-.1-14.93-.1-22.36l.59-116.58v-2H786.33v2l-.55,103.85c-.5,92.37-1.29,108.62-3.93,120.14-5.75,25.52-13.54,36.4-29.95,52.56-19.1,18.76-38.64,25.73-72.12,25.73-38.86,0-66.73-14.92-80.6-43.14l-.19-.39c-7.24-14.81-7.27-17.83-8.22-95.16V581l0-3.62c-.82-66.37-1.49-79.6-3.26-88-6.63-31.06-18.48-50.21-39.63-64-15.87-10.29-37.17-16.13-60-16.45Z"/>
      <g id="fermata-dot"><path class="cls-6" d="M688,358.62a19.5,19.5,0,1,1,19.5-19.5A19.52,19.52,0,0,1,688,358.62Z"/><path class="cls-6" d="M688,321.12a18,18,0,1,1-18,18,18,18,0,0,1,18-18m0-3a21,21,0,1,0,21,21,21,21,0,0,0-21-21Z"/></g>
      <g id="fermata-arch"><path
        class="cls-6"
        d="M785.67,348.11v-1c0-44-15.09-71-48.94-87.38-13.26-6.43-31.81-10.43-48.42-10.43l-2,0-2.06,0c-16.61,0-35.16,4-48.42,10.43C601.64,276.31,586.4,303.21,586.4,347v1h-1c-6.9,0-11.84.15-11.89.15h-.76c-1.42,0-3.44,0-5.3-.07-1.58,0-3-.05-3.92-.05h-1v-1c0-35.55,12.3-68.35,32.92-87.73,17.11-16.09,36.29-25.85,62.17-31.63C664.86,226,675.3,225,686.27,225s21.41,1,28.65,2.65c25.88,5.79,45.05,15.54,62.17,31.63C797.7,278.65,810,311.45,810,347v1h-1c-.88,0-2.34,0-3.92.05-1.86,0-3.87.07-5.3.07Z"/><path
        class="cls-6"
        d="M686.27,226c10.41,0,20.94.9,28.43,2.62C740,234.26,759,243.6,776.4,260S809,306.66,809,347c-1.92,0-6.58.12-9.21.12H786.67c0-41.11-12.64-70.4-49.5-88.28-14.25-6.91-33-10.53-48.86-10.53l-2,0-2,0c-15.88,0-34.6,3.61-48.86,10.53-36.86,17.88-50,47-50,88.13-7,0-11.92.15-11.92.15h-.73c-2.63,0-7.29-.12-9.21-.12,0-40.34,15.16-70.6,32.6-87s36.43-25.74,61.7-31.39c7.48-1.72,18-2.6,28.43-2.62m0-2h0c-11,0-21.56,1-28.87,2.67-26.06,5.83-45.38,15.66-62.63,31.88-9.52,8.95-17.58,21.13-23.32,35.23-6.57,16.14-9.91,34.05-9.91,53.23v2h2c.87,0,2.34,0,3.9.05,1.82,0,3.88.07,5.31.07h.75c.09,0,5-.15,11.9-.15h2v-2c0-43.32,15.06-69.95,48.85-86.34,13.13-6.37,31.52-10.33,48-10.33l2,0h.08l2,0c16.47,0,34.85,4,48,10.33,17.56,8.52,29.89,19.83,37.68,34.56,7.2,13.62,10.69,30.6,10.69,51.92v2h15.12c1.43,0,3.5,0,5.31-.07,1.56,0,3-.05,3.9-.05h2v-2c0-19.18-3.33-37.09-9.91-53.23-5.74-14.1-13.81-26.28-23.32-35.23-17.25-16.22-36.57-26.05-62.64-31.88-7.3-1.67-17.82-2.65-28.86-2.67Z"/></g>
    </g>
  </g>
</svg>
