<svg id="Musescore_Icon" data-name="Musescore Icon" xmlns="http://www.w3.org/2000/svg" viewBox="0 0 1000 1000"><defs><style>.cls-1{fill:#d8d8d8;}.cls-2{fill:#fff;}.cls-3{fill:#2269a5;}</style></defs><title>musescore-icon-round</title><ellipse id="Base" class="cls-1" cx="506.97" cy="500.48" rx="479.77" ry="479.76"/><ellipse id="Inner-Circle" class="cls-2" cx="506.97" cy="500.48" rx="441.3" ry="441.29"/><g id="Logo"><path id="fermata-arch" class="cls-3" d="M674.42,230.5c-25.34,5.43-44.35,15-61.29,30.9-17.84,16.94-27.28,35.43-31.16,60.9-2.72,17.71-3,16.81,4.4,16.81h6.21l.78-8.79c3-35.17,22.5-62.71,56-78.62,18.36-8.79,31-11.38,54.18-11.38,15.65.13,21.33.65,29.74,3,34.39,9.31,58.32,30.64,68.4,60.9a115,115,0,0,1,4,18.1c1.68,17.59,1.29,16.81,8,16.81h5.95l-.78-11.38c-.91-12.67-5.69-30.52-10.73-40.73-15-29.74-43.45-50.3-79.39-57C714.24,227.14,688.51,227.4,674.42,230.5Z"/><path id="fermata-dot" class="cls-3" d="M696.79,319.72c-3.62,1.42-8.15,8.53-8.15,12.67,0,10.73,13.32,18.23,22,12.28C725.88,334.33,713.85,312.86,696.79,319.72Z"/><path id="mu" class="cls-3" d="M289.74,413.72c-16.29,2.46-35.3,10.6-48.1,20.3-11.77,8.92-26.12,24.83-32.58,36.2a163.8,163.8,0,0,0-10,22.5c-7.89,23.4-8.28,29.09-8.28,137.84v97.75h12.8l.52-101.24c.52-112.1.26-108.35,9.31-132.15,13.19-34.39,37.37-57.93,68-66.2,10.73-2.84,35.82-2.84,48.23.13,24.57,5.82,43.32,23.79,50.56,48.49C386.33,497.51,386.46,502,387,618l.52,110.29h12.67l.39-107.71c.52-106.8.52-107.71,3.36-117.92,3.1-11,10.86-28.32,16.29-36.46,8.53-12.41,25.08-26,39.7-32.33,16.55-7.37,43.83-9.44,64.13-5.17,25.47,5.56,44.35,22.11,52.63,46.55,5.69,16.81,6.21,25.47,7.24,105.64.78,62.19,1.29,78.23,2.84,83.4,10.09,34.14,35.56,57.8,71.89,66.85,9.7,2.46,14.74,2.84,35.17,2.84,21.46-.13,25.21-.39,36.33-3.36,20.3-5.43,33.62-13.06,50-28.71C795.7,687.19,804,674,810.7,654c7.89-23.92,7.63-20.69,8.15-131.63l.52-101.76H806.43l-.52,97.24c-.52,94.78-.52,97.75-3.36,110.17-6.21,27.54-16.42,47.2-33.62,64.13-21.85,21.46-43.19,29.74-76,29.74-41.76,0-71.76-16.29-86.89-47.07-8.28-16.94-8.15-16-9.18-100.34-.78-63.23-1.42-78.62-3.1-86.63-6.21-29.09-17.2-46.94-36.59-59.61-30.52-19.78-81.46-20.56-114.17-1.55-4.65,2.72-13.58,10.09-20.17,16.55-10.09,10.09-12.54,13.45-18.23,25L398,481.6l-1.55-5c-4.4-13.45-12-25.6-23.79-37.24-19.14-19-34.26-25.21-62.19-25.86C301.25,413.2,291.94,413.33,289.74,413.72Z"/></g></svg>