<svg xmlns="http://www.w3.org/2000/svg" xmlns:xlink="http://www.w3.org/1999/xlink" viewBox="0 0 1000 1000"><defs><style>.cls-1{fill:url(#linear-gradient);}.cls-2{fill:#fff;}</style><linearGradient id="linear-gradient" x1="13.35" y1="503" x2="971.54" y2="503" gradientTransform="translate(992.9 8.24) rotate(89.68)" gradientUnits="userSpaceOnUse"><stop offset="0" stop-color="#1f8fbd"/><stop offset="0.25" stop-color="#1f86bd"/><stop offset="0.53" stop-color="#1f77bd"/><stop offset="1" stop-color="#1c69b5"/></linearGradient></defs><title>musescore-icon-round</title><g id="musescore-icon-round"><ellipse id="Circle" class="cls-1" cx="492.64" cy="503.48" rx="479.08" ry="479.09" transform="translate(-211.72 495.82) rotate(-45)"/><path id="mu" class="cls-2" d="M686.37,225c-76.92,0-139.78,62.86-139.78,139.77h46.59a93.19,93.19,0,0,1,186.37,0h46.59C826.14,287.82,763.28,225,686.37,225Zm0,116.48a23.3,23.3,0,1,0,23.29,23.29A23.3,23.3,0,0,0,686.37,341.44ZM290.34,388c-64.06,0-116.48,52.42-116.48,116.48v233h46.59v-233a69.89,69.89,0,1,1,139.77,0v233h46.6v-233a69.89,69.89,0,1,1,139.77,0v93.18c0,76.92,62.86,147.35,139.78,147.35s139.77-70.43,139.77-147.35V411.32H779.55V597.69c0,51.73-41.46,105.31-93.18,105.31s-93.19-53.58-93.19-105.31V504.51C593.18,440.45,540.76,388,476.7,388c-38.17,0-71.9,18.85-93.18,47.45C362.24,406.88,328.51,388,290.34,388Z"/></g></svg>