<svg xmlns="http://www.w3.org/2000/svg" xmlns:svg="http://www.w3.org/2000/svg" id="svg8" width="24" height="24" version="1.1"><metadata id="metadata14"/><rect id="rect8458" width="16.678" height="6.508" x="2.746" y="4.373" ry="1.983" style="fill:#fffc32;fill-opacity:1;stroke:#b7b80d;stroke-width:2;stroke-linecap:round;stroke-linejoin:miter;stroke-miterlimit:4;stroke-dasharray:none;stroke-dashoffset:.80000001;stroke-opacity:1"/><g id="g6" transform="matrix(0.71342955,0,0,0.71342955,22.693315,-15.743702)"><path id="path4" d="M 10.5,3 V 3 3" class="st0"/></g><path style="fill:#3b3f45;stroke-width:.71343" id="path8" d="M 18.348117,10.358857 C 17.634687,9.7881143 16.9926,9.6454283 16.350514,9.5027423 c -0.642087,-0.07134 -1.284173,-0.07134 -1.997603,-0.07134 -0.713429,0 -1.355516,0 -1.997603,0.142686 -0.642086,0.07134 -1.284173,0.214029 -1.997602,0.7847717 H 10.21502 c 0.285371,-0.8561147 0.927458,-1.4268587 1.712231,-1.7835727 0.784772,-0.356715 1.569545,-0.499401 2.42566,-0.499401 0.856116,0 1.640888,0.142686 2.425661,0.499401 0.784772,0.356714 1.426859,0.927458 1.71223,1.7835727 z" class="st1"/><path style="fill:#3b3f45;stroke-width:.71343" id="path10" d="m 21.701235,11.714374 c -0.356714,-0.285372 -0.784772,-0.428058 -1.284173,-0.428058 -0.856115,0 -1.712231,0.285372 -2.42566,0.927458 -0.71343,0.642087 -1.141488,1.284174 -1.141488,2.068946 0,0.07134 0,0.07134 0,0.07134 v 0 c 0,0 0,8.061754 0,8.061754 0.71343,0 1.42686,-0.428058 1.42686,-0.428058 v -6.27818 c 0.142686,0 0.214028,0 0.356714,0 v 0 c 0.856116,0 1.712231,-0.285372 2.425661,-0.927458 0.784772,-0.642087 1.141487,-1.284173 1.141487,-2.068946 0,-0.356715 -0.142686,-0.71343 -0.499401,-0.998801 z" class="st1"/><path style="fill:#3b3f45;stroke-width:.71343" id="path12" d="m 10.072334,11.286316 c -0.8561162,0 -1.7122312,0.285372 -2.4256612,0.927458 -0.713429,0.642087 -1.141487,1.355517 -1.141487,2.068946 0,0.07134 0,0.07134 0,0.07134 v 0 c 0,0.07134 0,8.133097 0,8.133097 0.71343,0 1.426859,-0.428058 1.426859,-0.428058 v -6.27818 c 0.142686,0 0.214029,0 0.356715,0 v 0 c 0.856115,0 1.7122312,-0.285372 2.4256602,-0.927458 0.784773,-0.642087 1.141488,-1.355516 1.141488,-2.068946 0,-0.428058 -0.142686,-0.784773 -0.499401,-1.070144 -0.356715,-0.285372 -0.71343,-0.428058 -1.284173,-0.428058 z" class="st1"/></svg>